<?xml version="1.0" encoding="utf-8"?>
<!-- Generator: Adobe Illustrator 25.0.0, SVG Export Plug-In . SVG Version: 6.00 Build 0)  -->
<svg version="1.1" id="Layer_1" xmlns="http://www.w3.org/2000/svg" xmlns:xlink="http://www.w3.org/1999/xlink" x="0px" y="0px"
	 viewBox="0 0 32 32" style="enable-background:new 0 0 32 32;" xml:space="preserve">
<style type="text/css">
	.st0{display:none;}
	.st1{display:inline;}
	.st2{display:inline;fill:#DEFE9B;}
	.st3{fill:#FFFFFF;enable-background:new    ;}
	.st4{fill:#FF0000;}
</style>
<g id="Layer_2_1_">
	<rect width="32" height="32"/>
</g>
<g id="Layer_1_3_">
	<g id="Layer_2_2_">
	</g>
	<g id="Layer_1_2_">
		<g id="Layer_1_1_" class="st0">
			<g id="Layer_2_3_" class="st1">
			</g>
			<path class="st2" d="M0,16c0,8.8,7.2,16,16,16s16-7.2,16-16S24.8,0,16,0S0,7.2,0,16z M16.8,7.6c0.3,0.1,0.5,0.4,0.8,0.8l7,10.7
				c0.2,0.2,0.3,0.5,0.3,0.6C25,19.9,25,20,25,20.2s0,0.4-0.1,0.6s-0.2,0.4-0.4,0.5c-0.2,0.1-0.3,0.2-0.5,0.3s-0.4,0.1-0.6,0.1
				c-0.3,0-0.5-0.1-0.7-0.2s-0.4-0.3-0.6-0.6L16,11.6L10,21c-0.2,0.3-0.4,0.5-0.6,0.6c-0.2,0.1-0.4,0.2-0.7,0.2
				c-0.2,0-0.4,0-0.6-0.1c-0.2-0.1-0.4-0.2-0.6-0.4c-0.2-0.2-0.3-0.3-0.4-0.5s-0.2-0.4-0.2-0.7c0-0.2,0-0.3,0.1-0.5s0.2-0.3,0.3-0.6
				l7-10.7c0.3-0.4,0.5-0.7,0.8-0.8c0.3-0.1,0.6-0.2,0.9-0.2C16.3,7.4,16.6,7.4,16.8,7.6z"/>
		</g>
		<path class="st3" d="M23.7,23.6c4.3-4.2,4.3-11.2,0-15.4s-11.2-4.3-15.5,0s-4.3,11.2,0,15.5S19.5,27.9,23.7,23.6z M10.1,13.8
			c-0.4,0-0.7-0.3-0.7-0.7s0.3-0.7,0.7-0.7h8.7c0.4,0,0.7,0.3,0.7,0.7v8.7c0,0.4-0.3,0.7-0.7,0.7c-0.2,0-0.4-0.1-0.5-0.2
			s-0.2-0.3-0.2-0.5v-8L10.1,13.8z"/>
	</g>
</g>
<g id="Layer_3" class="st0">
	<g class="st1">
		<path class="st4" d="M16,0.7c8.4,0,15.3,6.9,15.3,15.3S24.4,31.3,16,31.3S0.7,24.4,0.7,16S7.6,0.7,16,0.7 M16,0C7.2,0,0,7.2,0,16
			s7.2,16,16,16s16-7.2,16-16S24.8,0,16,0L16,0z"/>
	</g>
</g>
</svg>
