<?xml version="1.0" encoding="utf-8"?>
<!-- Generator: Adobe Illustrator 25.0.0, SVG Export Plug-In . SVG Version: 6.00 Build 0)  -->
<svg version="1.1" id="Layer_1" xmlns="http://www.w3.org/2000/svg" xmlns:xlink="http://www.w3.org/1999/xlink" x="0px" y="0px"
	 viewBox="0 0 32 32" style="enable-background:new 0 0 32 32;" xml:space="preserve">
<style type="text/css">
	.st0{display:none;}
	.st1{display:inline;}
	.st2{display:inline;fill:#DEFE9B;}
	.st3{fill:#FFFFFF;enable-background:new    ;}
</style>
<g id="Layer_2_1_">
	<rect width="32" height="32"/>
</g>
<g id="Layer_1_3_">
	<g id="Layer_2_2_">
	</g>
	<g id="Layer_1_2_">
		<g id="Layer_1_1_" class="st0">
			<g id="Layer_2_3_" class="st1">
			</g>
			<path class="st2" d="M16,0C7.2,0,0,7.2,0,16s7.2,16,16,16s16-7.2,16-16S24.8,0,16,0z M24.4,16.8c-0.1,0.3-0.4,0.5-0.8,0.8
				l-10.7,7c-0.2,0.2-0.5,0.3-0.6,0.3C12.1,25,12,25,11.8,25s-0.4,0-0.6-0.1c-0.2-0.1-0.4-0.2-0.5-0.4c-0.1-0.2-0.2-0.3-0.3-0.5
				s-0.1-0.4-0.1-0.6c0-0.3,0.1-0.5,0.2-0.7c0.1-0.2,0.3-0.4,0.6-0.6l9.3-6.1L11,10c-0.3-0.2-0.5-0.4-0.6-0.6
				c-0.1-0.2-0.2-0.4-0.2-0.7c0-0.2,0-0.4,0.1-0.6c0.1-0.2,0.2-0.4,0.4-0.6s0.3-0.3,0.5-0.4s0.4-0.2,0.7-0.2c0.2,0,0.3,0,0.5,0.1
				s0.3,0.2,0.6,0.3l10.7,7c0.4,0.3,0.7,0.5,0.8,0.8c0.1,0.3,0.2,0.6,0.2,0.9C24.6,16.3,24.6,16.6,24.4,16.8z"/>
		</g>
		<path class="st3" d="M8.3,8.3C4,12.5,4,19.5,8.3,23.7s11.2,4.3,15.5,0s4.3-11.2,0-15.5S12.5,4,8.3,8.3z M21.9,18.1
			c0.4,0,0.7,0.3,0.7,0.7c0,0.4-0.3,0.7-0.7,0.7h-8.7c-0.4,0-0.7-0.3-0.7-0.7v-8.7c0-0.4,0.3-0.7,0.7-0.7c0.2,0,0.4,0.1,0.5,0.2
			c0.1,0.1,0.2,0.3,0.2,0.5v8L21.9,18.1z"/>
	</g>
</g>
</svg>
