<?xml version="1.0" encoding="utf-8"?>
<!-- Generator: Adobe Illustrator 24.3.0, SVG Export Plug-In . SVG Version: 6.00 Build 0)  -->
<svg version="1.1" xmlns="http://www.w3.org/2000/svg" xmlns:xlink="http://www.w3.org/1999/xlink" x="0px" y="0px"
	 viewBox="0 0 32 32" style="enable-background:new 0 0 32 32;" xml:space="preserve">
<style type="text/css">
	.st0{fill:#0000FF;}
</style>
<g id="Layer_7">
	<rect transform="matrix(6.123234e-17 -1 1 6.123234e-17 0 32)" width="32" height="32"/>
</g>
<g id="Layer_2">
	<path class="st0" d="M78-16l0,24l10,0l0-24c0-5.5-4.5-10-10-10l-24,0l0,10L78-16z"/>
	<rect x="83" y="13" transform="matrix(-1.836970e-16 1 -1 -1.836970e-16 119 -83)" class="st0" width="36" height="10"/>
	<path class="st0" d="M32,8c13.2,0,24,10.8,24,24S45.2,56,32,56S8,45.2,8,32S18.8,8,32,8 M32,0C14.3,0,0,14.3,0,32s14.3,32,32,32
		s32-14.3,32-32S49.7,0,32,0L32,0z"/>
</g>
</svg>
