<?xml version="1.0" encoding="utf-8"?>
<!-- Generator: Adobe Illustrator 25.0.0, SVG Export Plug-In . SVG Version: 6.00 Build 0)  -->
<svg version="1.1" id="Layer_1" xmlns="http://www.w3.org/2000/svg" xmlns:xlink="http://www.w3.org/1999/xlink" x="0px" y="0px"
	 viewBox="0 0 32 32" style="enable-background:new 0 0 32 32;" xml:space="preserve">
<style type="text/css">
	.st0{display:none;}
	.st1{display:inline;}
	.st2{display:inline;fill:#DEFE9B;}
	.st3{fill:#FFFFFF;}
</style>
<g id="Layer_2_1_">
	<rect width="32" height="32"/>
</g>
<g id="Layer_1_3_">
	<g id="Layer_2_2_">
	</g>
	<g id="Layer_1_2_">
		<g id="Layer_1_1_" class="st0">
			<g id="Layer_2_3_" class="st1">
			</g>
			<path class="st2" d="M32,16c0-8.8-7.2-16-16-16S0,7.2,0,16s7.2,16,16,16S32,24.8,32,16z M15.2,24.4c-0.3-0.1-0.5-0.4-0.8-0.8
				l-7-10.7c-0.2-0.2-0.3-0.5-0.3-0.6C7,12.1,7,12,7,11.8s0-0.4,0.1-0.6c0.1-0.2,0.2-0.4,0.4-0.5c0.2-0.1,0.3-0.2,0.5-0.3
				s0.4-0.1,0.6-0.1c0.3,0,0.5,0.1,0.7,0.2c0.2,0.1,0.4,0.3,0.6,0.6l6.1,9.3l6-9.4c0.2-0.3,0.4-0.5,0.6-0.6c0.2-0.1,0.4-0.2,0.7-0.2
				c0.2,0,0.4,0,0.6,0.1c0.2,0.1,0.4,0.2,0.6,0.4c0.2,0.2,0.3,0.3,0.4,0.5c0.1,0.2,0.2,0.4,0.2,0.7c0,0.2,0,0.3-0.1,0.5
				c-0.1,0.2-0.2,0.3-0.3,0.6l-7,10.7c-0.3,0.4-0.5,0.7-0.8,0.8c-0.3,0.1-0.6,0.2-0.9,0.2C15.7,24.6,15.4,24.6,15.2,24.4z"/>
		</g>
		<path class="st3" d="M28,20v-8c0-4.4-3.6-8-8-8h-8c-4.4,0-8,3.6-8,8v8c0,4.4,3.6,8,8,8h8C24.4,28,28,24.4,28,20z M10.4,18.7
			c-0.3,0.3-0.7,0.3-1,0s-0.3-0.7,0-1l6.2-6.2c0.3-0.3,0.7-0.3,1,0l6.2,6.2c0.3,0.3,0.3,0.7,0,1c-0.1,0.1-0.4,0.2-0.5,0.2
			c-0.1,0-0.4-0.1-0.5-0.2L16,13L10.4,18.7z"/>
	</g>
</g>
</svg>
