<?xml version="1.0" encoding="utf-8"?>
<!-- Generator: Adobe Illustrator 25.0.0, SVG Export Plug-In . SVG Version: 6.00 Build 0)  -->
<svg version="1.1" id="Layer_1" xmlns="http://www.w3.org/2000/svg" xmlns:xlink="http://www.w3.org/1999/xlink" x="0px" y="0px"
	 viewBox="0 0 32 32" style="enable-background:new 0 0 32 32;" xml:space="preserve">
<style type="text/css">
	.st0{display:none;}
	.st1{display:inline;}
	.st2{display:inline;fill:#DEFE9B;}
	.st3{fill:#FFFFFF;}
</style>
<g id="Layer_2_1_">
	<rect x="0" y="0" width="32" height="32"/>
</g>
<g id="Layer_1_3_">
	<g id="Layer_2_2_">
	</g>
	<g id="Layer_1_2_">
		<g id="Layer_1_1_" class="st0">
			<g id="Layer_2_3_" class="st1">
			</g>
			<path class="st2" d="M0,16c0,8.8,7.2,16,16,16s16-7.2,16-16S24.8,0,16,0S0,7.2,0,16z M16.8,7.6c0.3,0.1,0.5,0.4,0.8,0.8l7,10.7
				c0.2,0.2,0.3,0.5,0.3,0.6C25,19.9,25,20,25,20.2c0,0.2,0,0.4-0.1,0.6c-0.1,0.2-0.2,0.4-0.4,0.5c-0.2,0.1-0.3,0.2-0.5,0.3
				s-0.4,0.1-0.6,0.1c-0.3,0-0.5-0.1-0.7-0.2c-0.2-0.1-0.4-0.3-0.6-0.6L16,11.6L10,21c-0.2,0.3-0.4,0.5-0.6,0.6
				c-0.2,0.1-0.4,0.2-0.7,0.2c-0.2,0-0.4,0-0.6-0.1c-0.2-0.1-0.4-0.2-0.6-0.4c-0.2-0.2-0.3-0.3-0.4-0.5c-0.1-0.2-0.2-0.4-0.2-0.7
				c0-0.2,0-0.3,0.1-0.5c0.1-0.2,0.2-0.3,0.3-0.6l7-10.7c0.3-0.4,0.5-0.7,0.8-0.8c0.3-0.1,0.6-0.2,0.9-0.2
				C16.3,7.4,16.6,7.4,16.8,7.6z"/>
		</g>
		<path class="st3" d="M4,12v8c0,4.4,3.6,8,8,8h8c4.4,0,8-3.6,8-8v-8c0-4.4-3.6-8-8-8h-8C7.6,4,4,7.6,4,12z M21.6,13.3
			c0.3-0.3,0.7-0.3,1,0s0.3,0.7,0,1l-6.2,6.2c-0.3,0.3-0.7,0.3-1,0l-6.2-6.2c-0.3-0.3-0.3-0.7,0-1c0.1-0.1,0.4-0.2,0.5-0.2
			c0.1,0,0.4,0.1,0.5,0.2L16,19L21.6,13.3z"/>
	</g>
</g>
</svg>
