<?xml version="1.0" encoding="utf-8"?>
<!-- Generator: Adobe Illustrator 25.0.0, SVG Export Plug-In . SVG Version: 6.00 Build 0)  -->
<svg version="1.1" id="Layer_1" xmlns="http://www.w3.org/2000/svg" xmlns:xlink="http://www.w3.org/1999/xlink" x="0px" y="0px"
	 viewBox="0 0 32 32" style="enable-background:new 0 0 32 32;" xml:space="preserve">
<style type="text/css">
	.st0{display:none;}
	.st1{display:inline;}
	.st2{display:inline;fill:#DEFE9B;}
	.st3{fill:#FFFFFF;}
</style>
<g id="Layer_2_1_">
	<rect x="0" width="32" height="32"/>
</g>
<g id="Layer_1_3_">
	<g id="Layer_2_2_">
	</g>
	<g id="Layer_1_2_">
		<g id="Layer_1_1_" class="st0">
			<g id="Layer_2_3_" class="st1">
			</g>
			<path class="st2" d="M16,32c8.8,0,16-7.2,16-16S24.8,0,16,0S0,7.2,0,16S7.2,32,16,32z M7.6,15.2c0.1-0.3,0.4-0.5,0.8-0.8l10.7-7
				c0.2-0.2,0.5-0.3,0.6-0.3C19.9,7,20,7,20.2,7c0.2,0,0.4,0,0.6,0.1s0.4,0.2,0.5,0.4c0.1,0.2,0.2,0.3,0.3,0.5s0.1,0.4,0.1,0.6
				c0,0.3-0.1,0.5-0.2,0.7s-0.3,0.4-0.6,0.6L11.6,16l9.4,6c0.3,0.2,0.5,0.4,0.6,0.6c0.1,0.2,0.2,0.4,0.2,0.7c0,0.2,0,0.4-0.1,0.6
				c-0.1,0.2-0.2,0.4-0.4,0.6c-0.2,0.2-0.3,0.3-0.5,0.4c-0.2,0.1-0.4,0.2-0.7,0.2c-0.2,0-0.3,0-0.5-0.1c-0.2-0.1-0.3-0.2-0.6-0.3
				l-10.7-7c-0.4-0.3-0.7-0.5-0.8-0.8c-0.1-0.3-0.2-0.6-0.2-0.9C7.4,15.7,7.4,15.4,7.6,15.2z"/>
		</g>
		<path class="st3" d="M12,28h8c4.4,0,8-3.6,8-8v-8c0-4.4-3.6-8-8-8h-8c-4.4,0-8,3.6-8,8v8C4,24.4,7.6,28,12,28z M13.3,10.4
			c-0.3-0.3-0.3-0.7,0-1s0.7-0.3,1,0l6.2,6.2c0.3,0.3,0.3,0.7,0,1l-6.2,6.2c-0.3,0.3-0.7,0.3-1,0c-0.1-0.1-0.2-0.4-0.2-0.5
			c0-0.1,0.1-0.4,0.2-0.5L19,16L13.3,10.4z"/>
	</g>
</g>
</svg>
