<?xml version="1.0" encoding="utf-8"?>
<!-- Generator: Adobe Illustrator 24.3.0, SVG Export Plug-In . SVG Version: 6.00 Build 0)  -->
<svg version="1.1" xmlns="http://www.w3.org/2000/svg" xmlns:xlink="http://www.w3.org/1999/xlink" x="0px" y="0px"
	 viewBox="0 0 32 32" style="enable-background:new 0 0 32 32;" xml:space="preserve">
<style type="text/css">
	.st0{fill:#FF8CCB;}
</style>
<g id="Layer_7">
</g>
<g id="Layer_3">
	<path class="st0" d="M32,32H0V16C0,7.2,7.2,0,16,0h0c8.8,0,16,7.2,16,16V32z"/>
</g>
<g id="Layer_8">
	<g>
		<path d="M29.7,29.2c-0.9,1.3-1.9,2.8-4.2,2.8s-3.3-1.5-4.2-2.8c-0.6-1-1.4-2-2.3-2c-0.9,0-1.7,1.1-2.3,2c-0.9,1.3-1.9,2.8-4.2,2.8
			c-2.3,0-3.3-1.5-4.2-2.8c-0.6-1-1.4-2-2.3-2c-0.9,0-1.7,1.1-2.3,2C3.1,30.4,2.1,31.8,0,32v0h32v-4.9
			C31.1,27.1,30.3,28.2,29.7,29.2z"/>
				<animate attributeName="opacity"
             values="1;0;1" dur=".7s"
             repeatCount="indefinite"/>
	</g>
</g>
<g id="Layer_4">
	<g>
		<path d="M2.3,29.2C3.2,30.5,4.2,32,6.5,32s3.3-1.5,4.2-2.8c0.6-1,1.4-2,2.3-2c0.9,0,1.7,1.1,2.3,2c0.9,1.3,1.9,2.8,4.2,2.8
			c2.3,0,3.3-1.5,4.2-2.8c0.6-1,1.4-2,2.3-2c0.9,0,1.7,1.1,2.3,2c0.8,1.3,1.8,2.7,3.9,2.8v0H0l0-4.9C0.9,27.1,1.7,28.2,2.3,29.2z"/>
				<animate attributeName="opacity"
             values="0;1;0" dur=".7s"
             repeatCount="indefinite"/>
	</g>
</g>
</svg>
