<?xml version="1.0" encoding="utf-8"?>
<!-- Generator: Adobe Illustrator 25.0.0, SVG Export Plug-In . SVG Version: 6.00 Build 0)  -->
<svg version="1.1" id="Layer_1" xmlns="http://www.w3.org/2000/svg" xmlns:xlink="http://www.w3.org/1999/xlink" x="0px" y="0px"
	 viewBox="0 0 100 24" style="enable-background:new 0 0 100 24;" xml:space="preserve">
<style type="text/css">
	.st0{fill:#FFFFFF;}
</style>
<g>
	<path class="st0" d="M1.8,14.8c0.6,0,1.1,0.3,1.4,0.7c0.6,0.8,1.3,1.9,2.9,1.9c1.2,0,2.1-0.9,2.1-2c0-1.5-1.4-2.1-3.1-2.7
		C2.8,12,0.2,11,0.2,7.2c0-3.1,2.6-5.6,6-5.6c3.1,0,6,1.9,6,4.2c0,1-0.8,1.8-1.9,1.8C9.9,7.6,9.3,7.5,9.1,7C8.5,6.3,7.6,5.2,6.1,5.2
		c-1.3,0-2.1,0.9-2.1,2c0,1.5,1.5,2,3.4,2.6c2.2,0.7,4.8,1.9,4.8,5.6c0,3.1-2.7,5.7-6.1,5.7C2.9,21.1,0,19,0,16.7
		C0,15.6,0.8,14.8,1.8,14.8z"/>
	<path class="st0" d="M18.4,11.3c0-5.4,4.2-9.7,9.7-9.7c3.1,0,5.7,1.3,7.1,3c0.4,0.4,0.6,1,0.6,1.4c0,1.1-0.8,1.9-2,1.9
		c-0.8,0-1.2-0.4-1.7-0.8c-0.9-0.9-2.2-1.7-3.9-1.7c-3.2,0-5.7,2.7-5.7,6c0,3.3,2.5,6,5.7,6c1.7,0,3-0.7,3.9-1.7
		c0.5-0.4,1-0.9,1.8-0.9c1.1,0,2,0.8,2,2c0,0.4-0.2,0.9-0.6,1.3c-1.4,1.7-3.9,3.1-7.1,3.1C22.5,21.1,18.4,16.8,18.4,11.3z"/>
	<path class="st0" d="M41.7,11.3c0-5.4,4.2-9.7,9.7-9.7c5.6,0,9.7,4.3,9.7,9.7c0,5.4-4.1,9.8-9.7,9.8C45.8,21.1,41.7,16.8,41.7,11.3
		z M57.1,11.3c0-3.3-2.4-6-5.7-6c-3.2,0-5.7,2.7-5.7,6c0,3.3,2.4,6,5.7,6C54.7,17.3,57.1,14.6,57.1,11.3z"/>
	<path class="st0" d="M68.1,10.2c0-5.2,3.5-8.6,8.3-8.6c1,0,1.9,0.8,1.9,1.9c0,1-0.8,1.9-1.9,1.9c-2.4,0-4.2,1.6-4.2,4.9V19
		c0,1.1-0.9,2.1-2,2.1s-2-0.9-2-2.1V10.2z"/>
	<path class="st0" d="M82.6,11.3c0-5.4,4.2-9.7,9.7-9.7c2.9,0,5.1,1.1,6.4,2.3c0.4,0.4,0.7,1,0.7,1.5c0,0.5-0.1,1-0.6,1.5l-5.7,6.7
		c-0.4,0.5-0.8,0.7-1.4,0.7c-1.1,0-1.9-0.8-1.9-1.8c0-0.4,0.1-0.9,0.4-1.2L94.8,6c-0.6-0.4-1.6-0.7-2.4-0.7c-3.2,0-5.7,2.7-5.7,6
		c0,3.3,2.5,6,5.7,6c1.7,0,3-0.7,3.9-1.7c0.6-0.5,1-0.9,1.8-0.9c1.1,0,2,0.8,2,2c0,0.4-0.2,0.9-0.6,1.3c-1.4,1.7-3.9,3.1-7.1,3.1
		C86.8,21.1,82.6,16.8,82.6,11.3z"/>
</g>
<rect y="22" width="100" height="2"/>
</svg>
